<svg width="37" height="51" viewBox="0 0 37 51" fill="none" xmlns="http://www.w3.org/2000/svg">
<path d="M4.02101 26.0506C1.40497 25.187 0.398802 22.596 0.398802 22.5C-0.305516 24.5152 -0.406133 28.6416 2.91422 31.6164C6.23458 34.5913 10.6617 33.1518 10.9636 33.1518C11.4667 28.6416 6.63705 26.9143 4.02101 26.0506Z" fill="#BDAF64"/>
<path d="M24.8986 16.1218C23.2617 15.0206 21.5859 16.409 21.1104 17.2594C20.3603 15.143 18.8781 14.4865 17.8753 14.5731C16.6928 14.6753 15.0982 15.9233 15.8736 18.1489C16.7074 20.5427 19.1644 22.1122 20.1116 23.1392C20.888 22.7118 21.5218 22.5567 23.0753 21.6676C23.6341 21.3478 24.4554 20.7735 25.1036 19.9625C25.8442 19.0359 26.2386 17.0233 24.8986 16.1218Z" fill="#4B751C"/>
<path d="M26.2015 39H22.9727C22.4916 33.4065 22.9108 26.847 27.8747 24.2244C28.8545 23.7067 29.912 23.2893 30.9926 23.0159C32.7142 22.5803 35.5059 20.9383 36.6169 20C36.8252 24.9259 34.2214 29.2487 31.6175 30.6561C29.5344 31.782 27.1389 31.9295 26.2015 31.8624V39Z" fill="#BDAF64"/>
<path d="M30.7329 15.1837C30.3329 20.8113 25.263 22.1047 25.0676 22.1047C27.5 22 30.6906 21.5712 34.5 17.5C38.3094 13.4288 36.3005 7.75379 32.3934 5.7182C29.5803 4.25258 25.7839 6.02354 24.2862 7.04133C22.0396 2.15593 18.6245 0.323909 13.5417 0.0185713C7.97645 -0.315747 2.1134 3.88618 1.52734 10.8072C1.05848 16.344 6.73681 22.2743 9.63457 24.5474C10.5 25.2262 12.5063 26.9493 13.444 29.6363C14.3817 32.3233 13.0533 36.9983 12.2719 39H19.8907C19.8256 37.0662 19.8907 32.8987 19.8907 30.4505C19.8907 28.2114 19.1794 26.1933 19.0116 25.7687C16.9604 20.578 7.97405 17.2193 8.95083 11.2143C9.73225 6.4103 13.8347 5.75213 15.7883 6.02354C21.0238 7.24489 21.6815 12.6392 21.3559 15.1837C23.1141 9.99293 31.1236 9.68759 30.7329 15.1837Z" fill="#4B751C"/>
<path d="M5.3337 49H4.3327L3.2127 47.089H2.7857V49H1.9457L1.9527 44.1H3.7937C4.04104 44.1 4.26037 44.17 4.4517 44.31C4.64304 44.45 4.79237 44.6343 4.8997 44.863C5.0117 45.087 5.0677 45.3297 5.0677 45.591C5.0677 45.787 5.02804 45.9807 4.9487 46.172C4.87404 46.3587 4.76904 46.5267 4.6337 46.676C4.49837 46.8253 4.34204 46.9373 4.1647 47.012L5.3337 49ZM4.2137 45.591C4.2137 45.4977 4.1927 45.402 4.1507 45.304C4.1087 45.2013 4.0527 45.115 3.9827 45.045C3.9127 44.975 3.83104 44.94 3.7377 44.94H2.7857V46.2H3.7377C3.83104 46.2 3.9127 46.1697 3.9827 46.109C4.0527 46.0483 4.1087 45.9713 4.1507 45.878C4.1927 45.78 4.2137 45.6843 4.2137 45.591ZM8.8996 47.572H6.4496C6.46827 47.782 6.5476 47.943 6.6876 48.055C6.8276 48.167 7.00027 48.2323 7.2056 48.251C7.41093 48.265 7.62093 48.237 7.8356 48.167C8.05494 48.0923 8.25094 47.9803 8.4236 47.831L8.8856 48.468C8.62893 48.6827 8.3676 48.8367 8.1016 48.93C7.84027 49.0187 7.58127 49.063 7.3246 49.063C6.73193 49.063 6.28627 48.8973 5.9876 48.566C5.6936 48.2347 5.5466 47.7657 5.5466 47.159C5.5466 46.8137 5.61427 46.5127 5.7496 46.256C5.8896 45.9993 6.0856 45.801 6.3376 45.661C6.59427 45.521 6.89527 45.4533 7.2406 45.458C7.9966 45.4673 8.5006 45.7637 8.7526 46.347C8.8226 46.515 8.86693 46.6993 8.8856 46.9C8.90894 47.1007 8.9136 47.3247 8.8996 47.572ZM7.3176 46.242C7.03293 46.242 6.81593 46.319 6.6666 46.473C6.52193 46.627 6.4496 46.7973 6.4496 46.984H8.1786C8.1786 46.7927 8.10393 46.6223 7.9546 46.473C7.80993 46.319 7.5976 46.242 7.3176 46.242ZM10.3873 49H9.54727V44.1H10.3873V49ZM11.5964 45.087C11.4517 45.087 11.3304 45.038 11.2324 44.94C11.1344 44.842 11.0854 44.7207 11.0854 44.576C11.0854 44.436 11.1344 44.317 11.2324 44.219C11.3304 44.121 11.4517 44.072 11.5964 44.072C11.7364 44.072 11.8554 44.121 11.9534 44.219C12.0514 44.317 12.1004 44.436 12.1004 44.576C12.1004 44.7207 12.0514 44.842 11.9534 44.94C11.8554 45.038 11.7364 45.087 11.5964 45.087ZM11.9814 49H11.2114V45.5H11.9814V49ZM15.9475 47.572H13.4975C13.5161 47.782 13.5955 47.943 13.7355 48.055C13.8755 48.167 14.0481 48.2323 14.2535 48.251C14.4588 48.265 14.6688 48.237 14.8835 48.167C15.1028 48.0923 15.2988 47.9803 15.4715 47.831L15.9335 48.468C15.6768 48.6827 15.4155 48.8367 15.1495 48.93C14.8881 49.0187 14.6291 49.063 14.3725 49.063C13.7798 49.063 13.3341 48.8973 13.0355 48.566C12.7415 48.2347 12.5945 47.7657 12.5945 47.159C12.5945 46.8137 12.6621 46.5127 12.7975 46.256C12.9375 45.9993 13.1335 45.801 13.3855 45.661C13.6421 45.521 13.9431 45.4533 14.2885 45.458C15.0445 45.4673 15.5485 45.7637 15.8005 46.347C15.8705 46.515 15.9148 46.6993 15.9335 46.9C15.9568 47.1007 15.9615 47.3247 15.9475 47.572ZM14.3655 46.242C14.0808 46.242 13.8638 46.319 13.7145 46.473C13.5698 46.627 13.4975 46.7973 13.4975 46.984H15.2265C15.2265 46.7927 15.1518 46.6223 15.0025 46.473C14.8578 46.319 14.6455 46.242 14.3655 46.242ZM18.6601 44.891C18.4641 44.891 18.3078 44.9073 18.1911 44.94C18.0745 44.9727 17.9905 45.0333 17.9391 45.122C17.8925 45.2107 17.8668 45.3413 17.8621 45.514H18.3801V46.249H17.8621V49.014H17.0361V46.249H16.5251V45.514H17.0431C17.0431 45.0427 17.1715 44.6763 17.4281 44.415C17.6848 44.1537 18.0955 44.037 18.6601 44.065V44.891ZM21.4758 49.077C21.1398 49.077 20.8294 49.0117 20.5448 48.881C20.2601 48.7457 20.0081 48.5683 19.7888 48.349C19.5694 48.125 19.3968 47.8637 19.2708 47.565C19.1448 47.2617 19.0818 46.9257 19.0818 46.557C19.0818 46.1977 19.1448 45.8663 19.2708 45.563C19.4014 45.255 19.5741 44.9867 19.7888 44.758C20.0034 44.534 20.2531 44.3567 20.5378 44.226C20.8271 44.0953 21.1398 44.03 21.4758 44.03C21.8304 44.03 22.1688 44.1117 22.4908 44.275C22.8128 44.4337 23.1114 44.681 23.3868 45.017L22.7078 45.577C22.5164 45.339 22.3181 45.1687 22.1128 45.066C21.9074 44.9587 21.6951 44.905 21.4758 44.905C21.2658 44.905 21.0698 44.947 20.8878 45.031C20.7104 45.115 20.5494 45.2317 20.4048 45.381C20.2648 45.5257 20.1551 45.6983 20.0758 45.899C19.9964 46.095 19.9568 46.3143 19.9568 46.557C19.9568 46.7997 19.9964 47.019 20.0758 47.215C20.1551 47.4063 20.2648 47.5767 20.4048 47.726C20.5448 47.8753 20.7058 47.992 20.8878 48.076C21.0698 48.16 21.2658 48.202 21.4758 48.202C21.6951 48.202 21.9074 48.1507 22.1128 48.048C22.3181 47.9407 22.5164 47.768 22.7078 47.53L23.3868 48.09C23.1114 48.426 22.8128 48.6757 22.4908 48.839C22.1688 48.9977 21.8304 49.077 21.4758 49.077ZM27.0569 49H26.2169V46.984C26.2169 46.746 26.1539 46.5733 26.0279 46.466C25.9066 46.3587 25.7386 46.305 25.5239 46.305C25.3279 46.305 25.1693 46.368 25.0479 46.494C24.9313 46.6153 24.8729 46.7437 24.8729 46.879V49H24.0329V44.1H24.8729V45.689C24.9849 45.5957 25.1179 45.535 25.2719 45.507C25.4306 45.4743 25.5939 45.465 25.7619 45.479C26.1866 45.5303 26.5086 45.6937 26.7279 45.969C26.9473 46.2397 27.0569 46.578 27.0569 46.984V49ZM28.6978 49.035C28.3432 49.0163 28.0748 48.916 27.8928 48.734C27.7108 48.5473 27.6198 48.2907 27.6198 47.964C27.6198 47.726 27.6805 47.523 27.8018 47.355C27.9232 47.1823 28.0842 47.047 28.2848 46.949C28.4855 46.851 28.7072 46.7903 28.9498 46.767C29.1972 46.7437 29.4468 46.76 29.6988 46.816V46.599C29.6988 46.4497 29.6382 46.3423 29.5168 46.277C29.3955 46.2117 29.2462 46.1813 29.0688 46.186C28.8962 46.1907 28.7212 46.2257 28.5438 46.291C28.3712 46.3517 28.2312 46.4403 28.1238 46.557L27.6548 46.046C27.8322 45.8733 28.0422 45.738 28.2848 45.64C28.5275 45.542 28.7772 45.486 29.0338 45.472C29.2952 45.458 29.5402 45.4883 29.7688 45.563C30.0022 45.6377 30.1935 45.759 30.3428 45.927C30.4595 46.0577 30.5248 46.2303 30.5388 46.445C30.5528 46.6597 30.5598 46.8953 30.5598 47.152V49H29.7058V48.678C29.5612 48.8133 29.4002 48.909 29.2228 48.965C29.0455 49.0163 28.8705 49.0397 28.6978 49.035ZM29.6778 48.013V47.411C29.1925 47.3737 28.8542 47.404 28.6628 47.502C28.4762 47.6 28.3828 47.7517 28.3828 47.957C28.3828 48.0877 28.4272 48.1833 28.5158 48.244C28.6092 48.3 28.7235 48.328 28.8588 48.328C28.9988 48.3233 29.1412 48.2953 29.2858 48.244C29.4352 48.188 29.5658 48.111 29.6778 48.013ZM31.7692 45.087C31.6245 45.087 31.5032 45.038 31.4052 44.94C31.3072 44.842 31.2582 44.7207 31.2582 44.576C31.2582 44.436 31.3072 44.317 31.4052 44.219C31.5032 44.121 31.6245 44.072 31.7692 44.072C31.9092 44.072 32.0282 44.121 32.1262 44.219C32.2242 44.317 32.2732 44.436 32.2732 44.576C32.2732 44.7207 32.2242 44.842 32.1262 44.94C32.0282 45.038 31.9092 45.087 31.7692 45.087ZM32.1542 49H31.3842V45.5H32.1542V49ZM36.124 49H35.284V46.956C35.284 46.7647 35.2467 46.6223 35.172 46.529C35.102 46.431 35.0134 46.3657 34.906 46.333C34.8034 46.3003 34.703 46.284 34.605 46.284C34.5117 46.284 34.402 46.3003 34.276 46.333C34.1547 46.3657 34.0474 46.431 33.954 46.529C33.8607 46.6223 33.814 46.7647 33.814 46.956V49H32.974V45.5H33.814V45.752C33.8934 45.6447 34.017 45.57 34.185 45.528C34.353 45.4813 34.514 45.458 34.668 45.458C34.9667 45.458 35.2234 45.521 35.438 45.647C35.6574 45.773 35.8254 45.948 35.942 46.172C36.0634 46.396 36.124 46.6573 36.124 46.956V49Z" fill="#4B751C"/>
</svg>
